<svg width="1209" height="201" viewBox="0 0 1209 201" fill="none" xmlns="http://www.w3.org/2000/svg">
<path fill-rule="evenodd" clip-rule="evenodd" d="M0 156.333L8.06 141.444C17.1275 126.556 33.2475 96.7778 50.375 85.6111C67.5025 74.4444 83.6225 81.8889 100.75 104.222C117.878 126.556 133.998 163.778 151.125 160.056C168.253 156.333 184.373 111.667 201.5 93.0556C218.628 74.4444 234.748 81.8889 251.875 96.7778C269.003 111.667 285.123 134 302.25 126.556C319.378 119.111 335.498 81.8889 352.625 89.3333C369.753 96.7778 385.873 148.889 403 171.222C420.128 193.556 436.248 186.111 453.375 163.778C470.503 141.444 486.623 104.222 503.75 96.7778C520.878 89.3333 536.998 111.667 554.125 107.944C571.253 104.222 587.373 74.4444 604.5 85.6111C621.628 96.7778 637.748 148.889 654.875 174.944C672.003 201 688.123 201 705.25 201C722.378 201 738.498 201 755.625 171.222C772.753 141.444 788.873 81.8889 806 70.7222C823.128 59.5556 839.248 96.7778 856.375 100.5C873.503 104.222 889.623 74.4444 906.75 81.8889C923.878 89.3333 939.998 134 957.125 160.056C974.253 186.111 990.373 193.556 1007.5 167.5C1024.63 141.444 1040.75 81.8889 1057.88 55.8333C1075 29.7778 1091.12 37.2222 1108.25 63.2778C1125.38 89.3333 1141.5 134 1158.63 126.556C1175.75 119.111 1191.87 59.5556 1200.94 29.7778L1209 0V0H1200.94C1191.87 0 1175.75 0 1158.63 0C1141.5 0 1125.38 0 1108.25 0C1091.12 0 1075 0 1057.88 0C1040.75 0 1024.63 0 1007.5 0C990.373 0 974.253 0 957.125 0C939.998 0 923.878 0 906.75 0C889.623 0 873.503 0 856.375 0C839.248 0 823.128 0 806 0C788.873 0 772.753 0 755.625 0C738.498 0 722.378 0 705.25 0C688.123 0 672.003 0 654.875 0C637.748 0 621.628 0 604.5 0C587.373 0 571.253 0 554.125 0C536.998 0 520.878 0 503.75 0C486.623 0 470.503 0 453.375 0C436.248 0 420.128 0 403 0C385.873 0 369.753 0 352.625 0C335.498 0 319.378 0 302.25 0C285.123 0 269.003 0 251.875 0C234.748 0 218.628 0 201.5 0C184.373 0 168.253 0 151.125 0C133.998 0 117.878 0 100.75 0C83.6225 0 67.5025 0 50.375 0C33.2475 0 17.1275 0 8.06 0H0V156.333Z" fill="#73578D"/>
</svg>
